<?xml version="1.0" encoding="utf-8"?><svg xmlns="http://www.w3.org/2000/svg" xmlns:xlink="http://www.w3.org/1999/xlink"><symbol viewBox="0 0 24 24" id="basket" xmlns="http://www.w3.org/2000/svg"><path d="M12 2.32031L5.32031 9H1.5V13.5H2.4375L4.52344 20.4609L4.6875 21H19.3125L19.4766 20.4609L21.5625 13.5H22.5V9H18.6797L12 2.32031ZM12 4.45312L16.5469 9H7.45312L12 4.45312ZM3 10.5H21V12H20.4375L20.2734 12.5391L18.1875 19.5H5.8125L3.72656 12.5391L3.5625 12H3V10.5ZM8.25 12.75V18H9.75V12.75H8.25ZM11.25 12.75V18H12.75V12.75H11.25ZM14.25 12.75V18H15.75V12.75H14.25Z"/></symbol><symbol viewBox="0 0 24 24" id="basket-mobile" xmlns="http://www.w3.org/2000/svg"><path d="M12 2.32031L5.32031 9H1.5V13.5H2.4375L4.52344 20.4609L4.6875 21H19.3125L19.4766 20.4609L21.5625 13.5H22.5V9H18.6797L12 2.32031ZM12 4.45312L16.5469 9H7.45312L12 4.45312ZM3 10.5H21V12H20.4375L20.2734 12.5391L18.1875 19.5H5.8125L3.72656 12.5391L3.5625 12H3V10.5ZM8.25 12.75V18H9.75V12.75H8.25ZM11.25 12.75V18H12.75V12.75H11.25ZM14.25 12.75V18H15.75V12.75H14.25Z"/></symbol><symbol viewBox="0 0 24 24" id="compare" xmlns="http://www.w3.org/2000/svg"><path d="M15.75 3V21H21.75V3H15.75ZM17.25 4.5H20.25V19.5H17.25V4.5ZM2.25 7.5V21H8.25V7.5H2.25ZM3.75 9H6.75V19.5H3.75V9ZM9 12V21H15V12H9ZM10.5 13.5H13.5V19.5H10.5V13.5Z"/></symbol><symbol viewBox="0 0 17 8" id="crumble" xmlns="http://www.w3.org/2000/svg"><path d="M8.82742 4.35798L12.9134 8L17 4.35827L16.2077 3.65202L13.474 6.08777L13.474 2.65903C13.474 1.19305 12.1363 -2.12601e-07 10.4917 -2.84485e-07L0 -7.43094e-07L-4.36616e-08 0.998861L10.4921 0.998861C11.5187 0.998861 12.3534 1.7436 12.3534 2.65874L12.3534 6.08836L9.6197 3.65143L8.82742 4.35798Z" fill-opacity="0.15"/></symbol><symbol viewBox="0 0 24 24" id="favorites" xmlns="http://www.w3.org/2000/svg"><path d="M7.125 3.75C4.02246 3.75 1.5 6.30176 1.5 9.375C1.5 10.4473 1.98633 11.376 2.4375 12.0469C2.88867 12.7178 3.35156 13.1484 3.35156 13.1484L11.4609 21.2812L12 21.8203L12.5391 21.2812L20.6484 13.1484C20.6484 13.1484 22.5 11.5166 22.5 9.375C22.5 6.30176 19.9775 3.75 16.875 3.75C14.2998 3.75 12.6416 5.2998 12 5.95312C11.3584 5.2998 9.7002 3.75 7.125 3.75ZM7.125 5.25C9.36621 5.25 11.4375 7.42969 11.4375 7.42969L12 8.0625L12.5625 7.42969C12.5625 7.42969 14.6338 5.25 16.875 5.25C19.1572 5.25 21 7.12207 21 9.375C21 10.5322 19.5938 12.0938 19.5938 12.0938L12 19.6875L4.40625 12.0938C4.40625 12.0938 4.04297 11.7451 3.67969 11.2031C3.31641 10.6611 3 9.95508 3 9.375C3 7.12207 4.84277 5.25 7.125 5.25Z"/></symbol><symbol viewBox="0 0 24 24" id="login" xmlns="http://www.w3.org/2000/svg"><path d="M12.0938 3L12.1641 3.02344L18.1641 4.42969L18.75 4.57031V19.7578L18.1406 19.8516L12.1406 20.9766L12.0703 21H10.5V3H12.0938ZM9 4.5V6H6.75V18H9V19.5H5.25V4.5H9ZM12 4.52344V19.5L17.25 18.5156V5.74219L12 4.52344ZM13.2422 11.25C13.5176 11.25 13.7578 11.5869 13.7578 12C13.7578 12.4131 13.5176 12.75 13.2422 12.75C12.9668 12.75 12.75 12.4131 12.75 12C12.75 11.5869 12.9668 11.25 13.2422 11.25Z"/></symbol><symbol viewBox="0 0 10 6" id="menu-mobile-arrow" xmlns="http://www.w3.org/2000/svg"><path d="M1 0.999939L5.24362 5.24173L9.48528 0.999939" stroke-opacity="0.5"/></symbol><symbol viewBox="0 0 24 24" id="menu-mobile-close" xmlns="http://www.w3.org/2000/svg"><path d="M5.41406 4.33594L4.33594 5.41406L10.9219 12L4.33594 18.5859L5.41406 19.6641L12 13.0781L18.5859 19.6641L19.6641 18.5859L13.0781 12L19.6641 5.41406L18.5859 4.33594L12 10.9219L5.41406 4.33594Z"/></symbol><symbol viewBox="0 0 24 24" id="menu-mobile-open" xmlns="http://www.w3.org/2000/svg"><path d="M3 5.25V6.75H21V5.25H3ZM3 11.25V12.75H21V11.25H3ZM3 17.25V18.75H21V17.25H3Z"/></symbol><symbol viewBox="0 0 20 20" id="search" xmlns="http://www.w3.org/2000/svg"><path d="M7.75 0.25C11.8838 0.25 15.25 3.61621 15.25 7.75C15.25 9.5459 14.6201 11.1924 13.5625 12.4844L19.5391 18.4609L18.4609 19.5391L12.4844 13.5625C11.1924 14.6201 9.5459 15.25 7.75 15.25C3.61621 15.25 0.25 11.8838 0.25 7.75C0.25 3.61621 3.61621 0.25 7.75 0.25ZM7.75 1.75C4.42773 1.75 1.75 4.42773 1.75 7.75C1.75 11.0723 4.42773 13.75 7.75 13.75C11.0723 13.75 13.75 11.0723 13.75 7.75C13.75 4.42773 11.0723 1.75 7.75 1.75Z"/></symbol></svg>